<mxfile host="app.diagrams.net" modified="2024-04-18T04:47:32.851Z" agent="Mozilla/5.0 (Windows NT 10.0; Win64; x64) AppleWebKit/537.36 (KHTML, like Gecko) Chrome/123.0.0.0 Safari/537.36" etag="GtvzPdXF64hd2LtTP1qx" version="24.2.5" type="device">
  <diagram name="Page-1" id="e4MZF-xR8PXCxsmsxCb4">
    <mxGraphModel dx="1050" dy="557" grid="1" gridSize="10" guides="1" tooltips="1" connect="1" arrows="1" fold="1" page="1" pageScale="1" pageWidth="850" pageHeight="1100" math="0" shadow="0">
      <root>
        <mxCell id="0" />
        <mxCell id="1" parent="0" />
        <mxCell id="yAoC9eMsDUoMNxs4lQ_M-1" value="" style="rounded=0;whiteSpace=wrap;html=1;" vertex="1" parent="1">
          <mxGeometry x="40" y="40" width="770" height="360" as="geometry" />
        </mxCell>
        <mxCell id="yAoC9eMsDUoMNxs4lQ_M-2" value="logo" style="rounded=1;whiteSpace=wrap;html=1;" vertex="1" parent="1">
          <mxGeometry x="60" y="50" width="90" height="40" as="geometry" />
        </mxCell>
        <mxCell id="yAoC9eMsDUoMNxs4lQ_M-3" value="forgot password:" style="text;html=1;align=center;verticalAlign=middle;whiteSpace=wrap;rounded=0;" vertex="1" parent="1">
          <mxGeometry x="180" y="150" width="140" height="30" as="geometry" />
        </mxCell>
        <mxCell id="yAoC9eMsDUoMNxs4lQ_M-4" value="" style="rounded=1;whiteSpace=wrap;html=1;" vertex="1" parent="1">
          <mxGeometry x="210" y="190" width="380" height="40" as="geometry" />
        </mxCell>
        <mxCell id="yAoC9eMsDUoMNxs4lQ_M-5" value="Submit" style="rounded=1;whiteSpace=wrap;html=1;" vertex="1" parent="1">
          <mxGeometry x="280" y="290" width="290" height="30" as="geometry" />
        </mxCell>
      </root>
    </mxGraphModel>
  </diagram>
</mxfile>
